<svg xmlns="http://www.w3.org/2000/svg" width="212.296" height="48.829" viewBox="0 0 212.296 48.829">
  <g id="galleria_logo-02" data-name="galleria logo-02" transform="translate(-2.058 0.19)">
    <path id="Path_1" data-name="Path 1" d="M25.83,28.426a9.393,9.393,0,0,1-1.419,2.144A5.769,5.769,0,0,1,22.7,31.8a7.589,7.589,0,0,1-2.19.6,26.807,26.807,0,0,1-2.946.154h-4.8a18.2,18.2,0,0,1-5.09-.617A7.712,7.712,0,0,1,4.39,30.03a7.543,7.543,0,0,1-1.774-3.316,18.016,18.016,0,0,1-.555-4.751V19.279a19.342,19.342,0,0,1,.555-4.936,8.36,8.36,0,0,1,1.758-3.5A7.465,7.465,0,0,1,7.66,8.775a16.5,16.5,0,0,1,5.105-.663h6a12.632,12.632,0,0,1,1.882.154,9.594,9.594,0,0,1,2.113.586A6.879,6.879,0,0,1,24.735,10.1a5.183,5.183,0,0,1,1.373,2.1V8.112h6.71V31.418a21.255,21.255,0,0,1-.524,4.828,9.424,9.424,0,0,1-2.021,4.087,10.041,10.041,0,0,1-4.026,2.761,18.278,18.278,0,0,1-6.725,1.033A25.127,25.127,0,0,1,15.85,43.8a23.414,23.414,0,0,1-3.625-.864l.833-5.476a20.221,20.221,0,0,0,3.085.725,22.042,22.042,0,0,0,3.085.2,8.9,8.9,0,0,0,3.177-.478,4.9,4.9,0,0,0,2.021-1.4,5.491,5.491,0,0,0,1.064-2.19,12.864,12.864,0,0,0,.308-2.9Zm0-11.63A3.5,3.5,0,0,0,24.5,14.745a4.735,4.735,0,0,0-2.483-.632H13.213a6.8,6.8,0,0,0-1.99.308A2.792,2.792,0,0,0,9.9,15.3a3.686,3.686,0,0,0-.725,1.681,15.825,15.825,0,0,0-.2,2.7v1.866a14.53,14.53,0,0,0,.231,2.9,3.949,3.949,0,0,0,.725,1.681,2.314,2.314,0,0,0,1.3.771,8.9,8.9,0,0,0,1.99.185h8.314a6.571,6.571,0,0,0,2.946-.524,3.085,3.085,0,0,0,1.4-2.113Z" transform="translate(0 4.5)" fill="#fefcff"/>
    <path id="Path_2" data-name="Path 2" d="M34.512,36.015c-3.27,0-5.584-.54-6.956-1.65A6.247,6.247,0,0,1,25.52,29.2V26.113a5.861,5.861,0,0,1,2.1-5.09A11.692,11.692,0,0,1,34.4,19.48h9.625a11.553,11.553,0,0,1,3.085.339,11.414,11.414,0,0,1,1.866.756V17.367a2.638,2.638,0,0,0-1.111-2.591,9.255,9.255,0,0,0-4.026-.617H27.695l.663-6.046H44.692a18.7,18.7,0,0,1,5.584.694,8.391,8.391,0,0,1,3.378,1.882,6.309,6.309,0,0,1,1.681,2.792,12.34,12.34,0,0,1,.478,3.424V36.015a4.982,4.982,0,0,1-2.9-.956,4.859,4.859,0,0,1-1.8-3.44A6.17,6.17,0,0,1,48.718,34.7a8.267,8.267,0,0,1-4.859,1.234ZM49.042,24.6a9.794,9.794,0,0,0-2.021-.571,17.816,17.816,0,0,0-3.085-.2H35.53a3.594,3.594,0,0,0-2.375.632,3.27,3.27,0,0,0-.725,2.468,3.239,3.239,0,0,0,.725,2.422,3.332,3.332,0,0,0,2.329.679h8.422a8.5,8.5,0,0,0,3.332-.632,2.931,2.931,0,0,0,1.789-2.375Z" transform="translate(12.711 4.5)" fill="#fefcff"/>
    <path id="Path_3" data-name="Path 3" d="M49.13,39.87V3.391L56.009,1V39.87Z" transform="translate(25.534 0.646)" fill="#fefcff"/>
    <path id="Path_4" data-name="Path 4" d="M57.64,39.87V3.391L64.519,1V39.87Z" transform="translate(30.15 0.646)" fill="#fefcff"/>
    <path id="Path_5" data-name="Path 5" d="M76.8,36.021a12.062,12.062,0,0,1-7.8-2.3q-2.823-2.314-2.823-7.512V17.943q0-5.229,2.823-7.527a12.154,12.154,0,0,1,7.882-2.3h9.255a12.34,12.34,0,0,1,7.82,2.3q2.807,2.3,2.807,7.527V24.5H72.972v1.712a3.748,3.748,0,0,0,1,2.992,4.3,4.3,0,0,0,2.823.833H96.232l-.879,5.985ZM89.862,18.3a4.72,4.72,0,0,0-.817-3.224,3.779,3.779,0,0,0-2.931-.956H76.859a3.918,3.918,0,0,0-2.946.925,4.1,4.1,0,0,0-.879,2.9v2.221H90Z" transform="translate(34.777 4.494)" fill="#fefcff"/>
    <path id="Path_6" data-name="Path 6" d="M89.88,36.089V8.186h6.663v3.825a6.077,6.077,0,0,1,2.746-3.085,9.424,9.424,0,0,1,6.278-.71,8.545,8.545,0,0,1,1.774.586l-.972,6.17a3.979,3.979,0,0,0-1.666-.787,11.183,11.183,0,0,0-2.576-.231,6.17,6.17,0,0,0-3.717.972,3.949,3.949,0,0,0-1.542,2.7V36.135Z" transform="translate(47.638 4.426)" fill="#fefcff"/>
    <path id="Path_7" data-name="Path 7" d="M103.75,9.128V1.74h6.972V9.128Zm0,30.34v-27.9h6.926v27.9Z" transform="translate(55.162 1.047)" fill="#fefcff"/>
    <path id="Path_8" data-name="Path 8" d="M120.932,36.015c-3.285,0-5.6-.54-6.956-1.65A6.247,6.247,0,0,1,111.94,29.2V26.113a5.892,5.892,0,0,1,2.082-5.09,11.784,11.784,0,0,1,6.8-1.542h9.609a11.676,11.676,0,0,1,3.085.339,11.213,11.213,0,0,1,1.851.756V17.367a2.653,2.653,0,0,0-1.188-2.591,9.255,9.255,0,0,0-4.026-.617H114.1l.679-6.046h16.334a18.756,18.756,0,0,1,5.584.694,8.5,8.5,0,0,1,3.378,1.882,6.309,6.309,0,0,1,1.681,2.792,12.34,12.34,0,0,1,.463,3.424V36.015a4.936,4.936,0,0,1-2.884-.956,4.859,4.859,0,0,1-1.82-3.44,6.17,6.17,0,0,1-2.375,3.085,8.268,8.268,0,0,1-4.859,1.234ZM135.447,24.6a9.641,9.641,0,0,0-2.005-.571,18.047,18.047,0,0,0-3.085-.2h-8.422a3.594,3.594,0,0,0-2.375.632,3.208,3.208,0,0,0-.725,2.468,3.177,3.177,0,0,0,.725,2.422,3.316,3.316,0,0,0,2.314.679h8.422a8.514,8.514,0,0,0,3.347-.632,2.915,2.915,0,0,0,1.774-2.375Z" transform="translate(59.589 4.5)" fill="#fefcff"/>
    <text id="TM" transform="translate(199.355 9.81)" fill="#fefcff" font-size="11" font-family="Karla-Regular, Karla"><tspan x="0" y="0">TM</tspan></text>
  </g>
</svg>
