<svg xmlns="http://www.w3.org/2000/svg" width="914.549" height="211.634" viewBox="0 0 914.549 211.634">
  <g id="galleria_logo-02" data-name="galleria logo-02" transform="translate(-1.558 1.19)">
    <path id="Path_1" data-name="Path 1" d="M104.358,95.552a40.424,40.424,0,0,1-6.107,9.227,24.825,24.825,0,0,1-7.368,5.31,32.657,32.657,0,0,1-9.426,2.589,115.359,115.359,0,0,1-12.678.664H48.136a78.326,78.326,0,0,1-21.9-2.655,33.189,33.189,0,0,1-14.138-8.231A32.459,32.459,0,0,1,4.459,88.184,77.529,77.529,0,0,1,2.07,67.74V56.19a83.237,83.237,0,0,1,2.39-21.241,35.977,35.977,0,0,1,7.567-15.068,32.127,32.127,0,0,1,14.138-8.895A71.025,71.025,0,0,1,48.136,8.133H73.957a54.362,54.362,0,0,1,8.1.664,41.288,41.288,0,0,1,9.094,2.522,29.6,29.6,0,0,1,8.5,5.377,22.3,22.3,0,0,1,5.908,9.027V8.133h28.874v100.3a91.465,91.465,0,0,1-2.257,20.776,40.557,40.557,0,0,1-8.7,17.59,43.212,43.212,0,0,1-17.325,11.882,78.658,78.658,0,0,1-28.941,4.447,108.134,108.134,0,0,1-15.8-1.394,100.76,100.76,0,0,1-15.6-3.717L49.4,134.449a87.016,87.016,0,0,0,13.276,3.12,94.858,94.858,0,0,0,13.276.863,38.3,38.3,0,0,0,13.674-2.058,21.108,21.108,0,0,0,8.7-6.04,23.63,23.63,0,0,0,4.58-9.426,55.36,55.36,0,0,0,1.328-12.479Zm0-50.049a15.068,15.068,0,0,0-5.708-8.828,20.378,20.378,0,0,0-10.687-2.721h-37.9A29.272,29.272,0,0,0,41.5,35.281a12.014,12.014,0,0,0-5.708,3.784A15.864,15.864,0,0,0,32.67,46.3a68.1,68.1,0,0,0-.863,11.616v8.032a62.527,62.527,0,0,0,1,12.479,16.993,16.993,0,0,0,3.12,7.235A9.957,9.957,0,0,0,41.5,88.981a38.3,38.3,0,0,0,8.563.8H85.839A28.277,28.277,0,0,0,98.517,87.52a13.276,13.276,0,0,0,6.04-9.094Z" transform="translate(0 46.771)" fill="none" stroke="#940ef9" stroke-width="1"/>
    <path id="Path_2" data-name="Path 2" d="M64.311,128.213c-14.072,0-24.029-2.323-29.936-7.1a26.883,26.883,0,0,1-8.762-22.237V85.6a25.224,25.224,0,0,1,9.027-21.9,50.314,50.314,0,0,1,29.206-6.638h41.42a49.716,49.716,0,0,1,13.276,1.46,49.119,49.119,0,0,1,8.032,3.253V47.962a11.351,11.351,0,0,0-4.779-11.151,39.826,39.826,0,0,0-17.325-2.655h-69.5l2.854-26.02H108.12a80.45,80.45,0,0,1,24.029,2.987,36.11,36.11,0,0,1,14.537,8.1,27.149,27.149,0,0,1,7.235,12.014,53.1,53.1,0,0,1,2.058,14.736v82.242A21.44,21.44,0,0,1,143.5,124.1a20.909,20.909,0,0,1-7.766-14.8,26.551,26.551,0,0,1-10.289,13.276,35.578,35.578,0,0,1-20.909,5.31Zm62.528-49.119a42.15,42.15,0,0,0-8.7-2.456,76.669,76.669,0,0,0-13.276-.863H68.692A15.466,15.466,0,0,0,58.47,78.5a14.072,14.072,0,0,0-3.12,10.62,13.939,13.939,0,0,0,3.12,10.421,14.338,14.338,0,0,0,10.023,2.921h36.242a36.574,36.574,0,0,0,14.338-2.721,12.612,12.612,0,0,0,7.7-10.222Z" transform="translate(132.113 46.768)" fill="none" stroke="#940ef9" stroke-width="1"/>
    <path id="Path_3" data-name="Path 3" d="M49.13,168.272V11.289L78.734,1V168.272Z" transform="translate(265.38 6.709)" fill="none" stroke="#940ef9" stroke-width="1"/>
    <path id="Path_4" data-name="Path 4" d="M57.64,168.272V11.289L87.244,1V168.272Z" transform="translate(313.357 6.709)" fill="none" stroke="#940ef9" stroke-width="1"/>
    <path id="Path_5" data-name="Path 5" d="M111.9,128.269a51.907,51.907,0,0,1-33.587-9.89Q66.17,108.422,66.17,86.053V50.475q0-22.5,12.147-32.392a52.306,52.306,0,0,1,33.919-9.89h39.827a53.1,53.1,0,0,1,33.654,9.89Q197.8,27.973,197.8,50.475V78.685H95.443v7.368A16.13,16.13,0,0,0,99.757,98.93a18.519,18.519,0,0,0,12.147,3.584H195.54l-3.784,25.755ZM168.126,52a20.311,20.311,0,0,0-3.518-13.873A16.263,16.263,0,0,0,152,34.013H112.17A16.86,16.86,0,0,0,99.492,38a17.657,17.657,0,0,0-3.784,12.479v9.558h73.015Z" transform="translate(361.447 46.711)" fill="none" stroke="#940ef9" stroke-width="1"/>
    <path id="Path_6" data-name="Path 6" d="M89.88,128.976V8.9h28.675V25.36A26.153,26.153,0,0,1,130.37,12.085a40.556,40.556,0,0,1,27.016-3.053,36.772,36.772,0,0,1,7.633,2.522L160.838,38.1a17.125,17.125,0,0,0-7.169-3.385,48.124,48.124,0,0,0-11.085-1,26.551,26.551,0,0,0-16,4.182,16.993,16.993,0,0,0-6.638,11.616v79.653Z" transform="translate(495.118 46.005)" fill="none" stroke="#940ef9" stroke-width="1"/>
    <path id="Path_7" data-name="Path 7" d="M103.75,33.535V1.74h30V33.535Zm0,130.565V44.023h29.8V164.1Z" transform="translate(573.314 10.881)" fill="none" stroke="#940ef9" stroke-width="1"/>
    <path id="Path_8" data-name="Path 8" d="M150.73,128.212c-14.138,0-24.1-2.323-29.936-7.1a26.883,26.883,0,0,1-8.762-22.237V85.6a25.356,25.356,0,0,1,8.961-21.9,50.713,50.713,0,0,1,29.273-6.638h41.353a50.248,50.248,0,0,1,13.276,1.46,48.257,48.257,0,0,1,7.965,3.252V47.961a11.417,11.417,0,0,0-5.111-11.151,39.827,39.827,0,0,0-17.325-2.655h-69.1l2.921-26.02h70.294a80.716,80.716,0,0,1,24.029,2.987,36.573,36.573,0,0,1,14.537,8.1,27.149,27.149,0,0,1,7.235,12.014,53.1,53.1,0,0,1,1.991,14.736v82.242a21.241,21.241,0,0,1-12.413-4.115,20.909,20.909,0,0,1-7.833-14.8,26.551,26.551,0,0,1-10.222,13.276,35.579,35.579,0,0,1-20.909,5.31Zm62.461-49.119a41.487,41.487,0,0,0-8.629-2.456,77.663,77.663,0,0,0-13.275-.863H155.045A15.466,15.466,0,0,0,144.822,78.5a13.807,13.807,0,0,0-3.12,10.62,13.674,13.674,0,0,0,3.12,10.421,14.271,14.271,0,0,0,9.957,2.921h36.242a36.641,36.641,0,0,0,14.4-2.721,12.545,12.545,0,0,0,7.633-10.222Z" transform="translate(619.329 46.769)" fill="none" stroke="#940ef9" stroke-width="1"/>
    <text id="TM" transform="translate(851.107 42.81)" fill="none" stroke="#940ef9" stroke-width="1" font-size="47" font-family="Karla-Regular, Karla"><tspan x="0" y="0">TM</tspan></text>
  </g>
</svg>
